<?xml version="1.0" standalone="no"?>
<!DOCTYPE svg PUBLIC "-//W3C//DTD SVG 20010904//EN"
 "http://www.w3.org/TR/2001/REC-SVG-20010904/DTD/svg10.dtd">
<svg version="1.0" xmlns="http://www.w3.org/2000/svg"
 width="200.000000pt" height="200.000000pt" viewBox="0 0 200.000000 200.000000"
 preserveAspectRatio="xMidYMid meet">

<g transform="translate(0.000000,200.000000) scale(0.100000,-0.100000)"
fill="#000000" stroke="none">
<path d="M768 1724 c-79 -42 -53 -154 35 -154 27 0 42 -8 69 -38 18 -20 39
-53 47 -72 7 -19 17 -44 21 -55 l9 -20 0 20 c1 31 -37 107 -71 142 -30 31 -31
34 -15 51 24 26 22 87 -3 112 -11 11 -24 20 -29 20 -5 0 -15 2 -23 5 -7 2 -25
-2 -40 -11z"/>
<path d="M1138 1719 c-33 -24 -38 -75 -11 -115 16 -25 15 -26 -8 -47 -35 -31
-67 -90 -74 -134 -5 -34 -3 -32 17 18 13 31 36 72 51 92 24 32 34 37 68 37 67
0 107 61 83 125 -7 19 -55 45 -81 45 -10 0 -30 -10 -45 -21z"/>
<path d="M348 1673 c-83 -76 -131 -178 -144 -310 -4 -36 -12 -70 -18 -76 -62
-67 -116 -199 -116 -287 0 -138 71 -289 169 -360 47 -34 68 -41 25 -8 -104 79
-164 201 -164 335 0 67 5 94 25 140 31 68 66 123 80 123 6 0 19 -24 29 -52 25
-70 111 -156 181 -181 58 -20 145 -22 209 -5 l44 12 -28 50 c-16 28 -32 69
-35 91 -16 95 -38 144 -97 211 -85 99 -129 182 -110 209 15 22 89 72 121 83
19 7 52 12 75 13 38 0 39 1 16 10 -44 19 -134 6 -181 -25 l-42 -28 6 28 c3 16
9 37 12 47 11 28 -12 20 -57 -20z"/>
<path d="M1590 1705 c0 -4 7 -20 16 -36 8 -17 13 -33 10 -36 -3 -3 -29 6 -57
21 -38 19 -68 26 -108 26 -67 0 -109 -19 -46 -21 61 -1 109 -20 160 -63 40
-33 45 -43 40 -65 -10 -40 -44 -90 -108 -159 -65 -70 -94 -126 -103 -199 -7
-48 -44 -136 -64 -148 -22 -14 -7 -22 59 -35 86 -16 154 -10 215 20 66 31 140
110 162 171 10 27 23 48 29 46 16 -6 54 -77 75 -146 45 -143 8 -287 -104 -409
-26 -28 -33 -41 -19 -34 30 17 91 89 118 143 30 57 55 154 55 209 0 86 -53
233 -101 281 -15 15 -21 38 -25 91 -6 84 -31 161 -75 229 -40 63 -129 141
-129 114z"/>
<path d="M807 1388 c-58 -16 -123 -85 -142 -153 -9 -31 -15 -62 -12 -69 3 -7
24 -18 47 -25 104 -31 231 37 277 148 l15 36 19 -40 c41 -87 120 -143 213
-151 60 -6 100 11 104 44 6 40 -27 117 -66 155 -53 52 -114 72 -172 56 -25 -7
-55 -19 -67 -27 -20 -13 -28 -12 -66 6 -57 27 -103 33 -150 20z"/>
<path d="M982 1246 c-22 -49 -74 -95 -129 -116 -64 -24 -101 -25 -150 -5 -20
8 -38 14 -40 12 -8 -9 29 -76 59 -106 123 -123 333 -147 478 -56 43 27 104 98
119 138 12 32 13 32 -29 11 -86 -43 -231 18 -282 119 l-14 28 -12 -25z"/>
<path d="M608 947 c-100 -34 -158 -68 -221 -130 -36 -36 -45 -51 -62 -106 -7
-23 -6 -24 34 -18 79 10 186 74 276 164 46 45 89 83 94 83 17 0 13 18 -7 29
-14 7 -44 1 -114 -22z"/>
<path d="M1273 965 c-17 -13 -16 -15 12 -36 17 -13 59 -53 95 -89 69 -69 178
-132 254 -146 37 -6 38 -6 31 17 -33 107 -159 206 -322 253 -43 12 -54 12 -70
1z"/>
<path d="M666 858 c-100 -95 -184 -147 -280 -173 l-68 -19 5 -33 c11 -62 54
-138 114 -194 82 -78 153 -111 298 -138 45 -8 48 -8 30 5 -11 8 -31 18 -45 21
-33 8 -67 30 -108 67 -70 64 -79 118 -31 189 17 26 44 80 59 121 37 95 70 147
115 182 28 21 33 29 24 40 -6 8 -15 14 -20 14 -4 0 -47 -37 -93 -82z"/>
<path d="M1221 931 c-12 -8 -6 -19 31 -59 48 -52 77 -100 98 -167 7 -22 28
-71 47 -110 39 -78 40 -114 2 -166 -23 -33 -102 -87 -159 -109 -41 -15 -61
-31 -34 -25 112 23 179 42 231 67 105 51 198 163 221 266 l10 42 -49 14 c-90
27 -188 87 -282 173 -50 45 -94 83 -97 83 -3 0 -12 -4 -19 -9z"/>
<path d="M755 843 c-19 -27 -39 -64 -45 -83 -38 -131 32 -316 166 -439 102
-93 134 -92 246 8 61 56 102 115 136 201 50 126 47 228 -10 307 -41 57 -54 62
-61 24 -8 -38 -63 -100 -104 -117 -44 -19 -118 -18 -159 2 -52 25 -114 90
-114 119 0 37 -16 31 -55 -22z"/>
</g>

</svg>
