<?xml version="1.0" standalone="no"?>
<!DOCTYPE svg PUBLIC "-//W3C//DTD SVG 20010904//EN"
 "http://www.w3.org/TR/2001/REC-SVG-20010904/DTD/svg10.dtd">
<svg version="1.0" xmlns="http://www.w3.org/2000/svg"
 width="1600.000000pt" height="1600.000000pt" viewBox="0 0 1600.000000 1600.000000"
 preserveAspectRatio="xMidYMid meet">

<g transform="translate(0.000000,1600.000000) scale(0.100000,-0.100000)"
fill="#000000" stroke="none">
<path d="M9415 13920 c-96 -14 -163 -40 -274 -108 -131 -79 -187 -131 -230
-211 -75 -141 -90 -324 -42 -515 40 -158 75 -220 195 -344 55 -56 96 -105 93
-108 -3 -4 -34 -21 -69 -38 -41 -22 -103 -70 -179 -142 -162 -153 -174 -170
-366 -524 -134 -247 -187 -382 -228 -583 -31 -152 -33 -193 -11 -235 19 -37
27 -39 48 -14 28 31 56 103 139 356 125 387 165 470 338 721 97 141 170 223
314 349 l78 69 72 -23 c236 -73 560 -3 685 148 41 51 139 197 166 249 29 57
49 165 49 268 0 124 -29 221 -103 346 -63 105 -121 164 -231 239 -141 94 -277
125 -444 100z"/>
<path d="M6330 13903 c-77 -12 -127 -31 -235 -89 -179 -98 -220 -144 -316
-359 -37 -84 -56 -258 -40 -366 23 -145 151 -367 254 -438 69 -47 286 -136
300 -122 14 14 50 14 63 1 8 -8 34 -6 85 4 41 8 101 17 134 20 55 6 64 4 102
-21 139 -94 296 -264 479 -518 136 -189 211 -368 289 -690 20 -83 41 -161 48
-174 14 -28 79 -60 121 -61 l29 0 -6 58 c-6 67 -45 204 -124 432 -60 174 -174
413 -256 536 -59 90 -203 258 -352 413 -63 66 -115 122 -115 125 0 2 27 31 61
62 66 63 139 173 171 256 47 122 61 325 32 448 -23 97 -75 197 -136 259 -58
59 -188 148 -270 186 -70 32 -232 52 -318 38z"/>
<path d="M3170 13690 c-144 -79 -333 -208 -435 -297 -88 -77 -234 -241 -328
-369 -159 -217 -327 -463 -327 -479 0 -3 -16 -31 -35 -61 -185 -289 -344 -815
-410 -1358 -23 -187 -35 -441 -25 -533 13 -123 5 -140 -119 -268 -101 -105
-139 -155 -343 -453 -125 -182 -302 -517 -381 -723 -103 -265 -196 -599 -216
-769 -51 -435 -26 -803 84 -1235 101 -395 176 -591 346 -907 158 -293 356
-598 489 -752 144 -167 412 -391 529 -443 30 -13 79 -43 110 -67 134 -102 193
-137 204 -119 8 13 -20 83 -43 108 -12 12 -58 45 -103 73 -197 120 -433 334
-618 560 -137 168 -218 290 -309 467 -40 77 -91 174 -113 215 -92 174 -200
460 -270 715 -106 382 -99 1107 13 1485 72 243 137 411 236 610 56 113 113
221 126 240 13 19 51 86 83 148 47 89 76 130 143 200 46 48 101 110 122 137
46 61 98 111 106 102 3 -3 19 -52 34 -109 36 -132 104 -342 142 -438 75 -190
233 -453 328 -545 34 -33 86 -91 115 -130 29 -38 122 -138 207 -221 154 -151
275 -242 453 -340 159 -87 602 -256 768 -292 114 -24 139 -26 387 -26 338 -1
429 12 835 114 171 43 331 81 356 85 25 4 52 10 59 15 17 10 5 28 -95 155
-112 141 -149 201 -230 373 -125 266 -188 467 -240 767 -48 277 -119 563 -182
739 -46 128 -149 330 -195 381 -24 28 -78 93 -120 145 -42 52 -104 122 -138
155 -34 33 -91 96 -128 140 -36 44 -96 114 -132 155 -184 209 -394 486 -451
595 -17 33 -62 114 -100 180 -101 177 -168 355 -214 566 -15 69 -15 80 -2 105
17 33 90 104 157 154 25 19 81 66 125 106 126 112 335 265 455 332 89 50 236
102 375 133 250 57 356 70 597 76 128 3 225 10 222 15 -11 17 -125 68 -196 87
-370 100 -750 102 -1040 5 -157 -52 -531 -253 -691 -370 -20 -15 -40 -24 -43
-21 -8 8 57 269 102 407 19 59 54 156 79 215 25 59 45 113 45 121 0 25 -33 14
-160 -56z"/>
<path d="M12678 13734 c-8 -8 3 -43 50 -154 130 -309 154 -368 177 -441 14
-44 25 -94 25 -111 0 -28 -2 -30 -27 -23 -16 3 -53 23 -83 44 -77 53 -169 105
-363 205 -212 110 -287 140 -445 177 -113 27 -150 31 -327 36 -308 8 -497 -20
-694 -105 -87 -38 -186 -91 -179 -97 2 -1 39 4 83 13 124 24 379 20 530 -8
183 -33 367 -77 453 -106 165 -57 374 -183 560 -338 54 -45 129 -105 167 -135
94 -73 231 -198 256 -233 20 -27 20 -30 4 -101 -44 -196 -205 -520 -398 -802
-22 -33 -64 -95 -93 -138 -31 -47 -91 -115 -150 -170 -222 -208 -559 -564
-655 -691 -41 -54 -91 -122 -113 -150 -48 -64 -155 -281 -202 -412 -43 -119
-86 -305 -108 -469 -31 -226 -38 -270 -67 -411 -33 -163 -42 -193 -110 -351
-54 -126 -184 -351 -252 -434 -116 -143 -207 -264 -207 -275 0 -16 17 -20 295
-74 238 -46 332 -67 440 -98 141 -40 347 -62 597 -62 280 0 370 15 630 104
368 127 511 200 783 401 190 141 482 447 652 683 110 152 275 521 351 781 17
57 35 108 40 113 15 15 28 3 81 -76 27 -40 71 -97 99 -127 65 -71 82 -100 196
-327 87 -171 109 -228 207 -522 123 -372 151 -473 173 -621 26 -172 39 -431
32 -619 -15 -393 -44 -546 -188 -975 -84 -249 -114 -315 -206 -457 -44 -68
-97 -157 -117 -199 -20 -42 -66 -112 -102 -155 -36 -44 -93 -119 -126 -168
-140 -209 -368 -431 -628 -611 -130 -90 -165 -127 -153 -159 11 -28 40 -18
116 40 40 30 124 87 187 127 208 129 403 285 501 403 19 23 74 85 122 138 48
54 100 116 116 139 15 23 58 85 94 137 36 52 92 145 123 205 32 61 89 165 126
232 126 227 200 417 308 798 94 333 118 604 91 1060 -15 246 -34 344 -139 705
-94 325 -123 400 -300 763 -160 328 -229 429 -438 639 l-116 117 11 148 c27
387 -52 997 -176 1363 -48 140 -131 338 -194 462 -54 107 -292 475 -445 688
-114 160 -312 341 -573 526 -194 137 -279 182 -302 158z"/>
<path d="M6690 11183 c-63 -8 -161 -33 -224 -57 -33 -12 -101 -38 -151 -56
-204 -74 -530 -313 -668 -491 -205 -264 -297 -453 -383 -788 -42 -162 -55
-249 -55 -363 0 -93 11 -126 53 -164 52 -48 245 -126 423 -171 123 -30 405
-43 533 -24 146 22 357 73 452 108 89 33 347 164 485 246 75 44 295 266 358
362 26 39 79 108 118 155 126 151 190 285 247 521 17 68 35 135 40 149 9 23 9
23 19 5 6 -11 32 -81 58 -155 70 -203 130 -318 240 -464 53 -71 105 -145 115
-165 26 -51 137 -172 266 -293 153 -143 327 -250 579 -355 127 -53 443 -126
635 -148 200 -22 603 77 754 186 66 47 71 66 57 222 -43 472 -136 745 -353
1038 -47 63 -121 148 -164 189 -131 124 -256 234 -307 269 -119 81 -440 209
-593 236 -170 30 -394 13 -549 -41 -55 -19 -148 -50 -207 -68 -67 -21 -131
-49 -170 -74 -35 -23 -126 -69 -203 -102 -77 -34 -150 -68 -162 -76 -24 -15
-32 -10 -129 77 -25 22 -76 50 -136 73 -53 21 -118 51 -145 68 -63 41 -260
113 -365 134 -81 16 -389 28 -468 17z"/>
<path d="M7925 10178 c-3 -7 -16 -45 -29 -84 -27 -80 -172 -318 -245 -404 -26
-30 -79 -98 -118 -150 -76 -102 -119 -145 -253 -260 -96 -81 -223 -150 -377
-204 -54 -19 -136 -50 -182 -70 -147 -62 -357 -97 -596 -97 -267 -1 -317 12
-631 167 -116 57 -217 104 -223 104 -14 0 -14 -10 4 -100 44 -231 151 -441
367 -721 76 -99 325 -329 424 -391 22 -15 63 -45 90 -69 68 -59 133 -99 308
-189 153 -80 208 -103 466 -192 462 -161 662 -195 1080 -185 287 8 488 31 640
77 210 62 428 133 540 177 113 43 371 175 460 236 85 57 245 195 340 292 52
53 121 122 154 153 32 31 84 93 115 137 32 44 84 114 115 155 114 149 296 570
257 594 -14 9 -107 -28 -176 -70 -119 -72 -346 -148 -520 -174 -138 -21 -438
1 -639 47 -99 22 -378 140 -489 206 -51 30 -131 90 -177 131 -47 42 -114 100
-150 129 -36 30 -83 76 -105 103 -21 27 -69 83 -106 124 -74 83 -218 301 -256
388 -58 135 -67 152 -75 152 -5 0 -11 -6 -13 -12z"/>
<path d="M5510 7805 c-47 -12 -137 -35 -200 -50 -63 -15 -180 -50 -260 -77
-80 -26 -229 -75 -331 -108 -219 -70 -428 -153 -554 -219 -229 -120 -364 -197
-413 -234 -29 -22 -108 -78 -177 -126 -177 -123 -296 -224 -462 -390 -332
-334 -492 -620 -545 -975 -12 -83 -16 -142 -11 -147 6 -6 41 -3 89 7 43 8 100
17 125 19 126 10 408 79 554 137 248 98 528 226 650 296 222 128 412 255 520
347 33 28 103 83 155 122 96 71 223 201 405 418 95 112 307 330 380 390 40 33
114 96 163 140 50 44 123 100 162 125 40 25 92 63 117 85 40 37 43 43 34 67
-11 30 -148 151 -203 179 -47 24 -92 23 -198 -6z"/>
<path d="M10288 7810 c-18 -9 -51 -28 -73 -42 -23 -14 -68 -39 -100 -56 -33
-16 -80 -44 -103 -62 -41 -29 -43 -33 -28 -49 9 -9 57 -39 108 -66 112 -59
182 -105 292 -193 194 -157 316 -278 708 -702 109 -118 220 -232 246 -252 26
-20 74 -58 107 -85 33 -26 89 -65 125 -87 36 -21 90 -56 120 -76 93 -63 339
-201 455 -255 285 -135 435 -200 575 -251 115 -42 378 -110 480 -124 41 -5 90
-13 109 -16 l34 -7 -7 74 c-4 41 -14 102 -22 137 -20 90 -100 315 -139 392
-85 168 -378 509 -630 733 -277 246 -350 299 -565 410 -80 41 -198 102 -262
135 -123 63 -373 163 -573 230 -66 22 -174 58 -240 81 -195 68 -414 128 -502
138 -69 7 -88 6 -115 -7z"/>
<path d="M9864 7508 c-16 -10 -74 -42 -129 -70 -106 -53 -135 -73 -135 -94 0
-7 60 -61 133 -120 236 -191 528 -507 683 -739 152 -227 354 -709 410 -980 8
-38 29 -108 46 -155 38 -106 256 -549 359 -731 116 -203 136 -247 159 -340 49
-204 7 -480 -101 -663 -57 -97 -232 -330 -294 -391 -28 -27 -103 -85 -165
-128 -63 -42 -158 -109 -210 -147 -52 -38 -138 -93 -190 -121 -52 -29 -119
-66 -148 -83 -87 -50 -102 -58 -202 -96 -186 -72 -306 -123 -400 -167 -52 -25
-135 -60 -185 -79 -49 -19 -95 -40 -103 -46 -27 -23 13 -28 104 -13 49 8 167
26 262 40 230 34 712 140 1002 220 363 99 386 107 564 192 99 46 189 89 201
93 39 15 377 221 487 297 114 78 257 202 348 299 30 32 108 116 173 186 66 70
129 140 140 156 12 15 42 53 67 83 125 149 223 311 391 649 66 133 127 333
159 522 16 95 33 194 38 220 15 80 6 87 -203 142 -264 71 -312 85 -395 116
-47 17 -123 45 -170 61 -47 17 -139 57 -205 89 -66 32 -190 92 -275 133 -85
41 -216 112 -290 157 -74 46 -175 106 -225 135 -260 150 -413 280 -940 799
-93 92 -217 206 -275 254 -58 48 -118 100 -135 115 -55 52 -249 195 -286 210
-34 14 -39 14 -65 -5z"/>
<path d="M6023 7509 c-5 -5 -53 -40 -106 -77 -52 -37 -140 -104 -194 -148 -95
-79 -627 -610 -808 -807 -68 -74 -128 -125 -244 -208 -85 -60 -186 -128 -225
-151 -39 -23 -118 -70 -175 -105 -57 -36 -205 -116 -330 -178 -124 -62 -246
-124 -271 -138 -124 -71 -654 -232 -912 -277 -92 -16 -177 -34 -188 -40 -16
-9 -20 -21 -20 -63 0 -146 55 -470 100 -597 36 -101 87 -225 117 -284 85 -172
230 -411 297 -490 39 -46 100 -118 136 -162 90 -109 311 -335 395 -405 39 -31
102 -88 140 -126 91 -88 403 -302 525 -360 52 -24 163 -78 245 -119 83 -40
170 -78 195 -83 25 -6 65 -17 90 -26 283 -103 749 -212 1245 -292 357 -58 369
-59 363 -42 -3 8 -15 20 -29 26 -30 16 -215 108 -291 145 -32 16 -155 64 -274
108 -314 115 -507 225 -794 456 -256 205 -397 358 -477 519 -83 165 -159 408
-144 461 5 17 12 59 16 94 7 63 44 181 83 272 33 75 170 287 224 348 27 30 61
75 75 100 14 25 50 86 78 135 93 159 123 228 224 522 55 159 124 347 154 419
30 71 73 180 97 242 33 85 71 156 148 275 155 242 234 338 438 538 109 108
312 267 385 305 78 39 72 60 -36 108 -32 15 -73 37 -90 50 -41 32 -110 66
-133 66 -10 0 -23 -5 -29 -11z"/>
<path d="M6318 7113 c-59 -60 -142 -153 -185 -208 -42 -55 -102 -130 -133
-167 -30 -37 -88 -124 -129 -195 -40 -70 -82 -139 -93 -153 -36 -48 -105 -206
-126 -290 -32 -126 -54 -230 -57 -270 -1 -19 -8 -69 -14 -110 -15 -104 -17
-421 -2 -560 14 -137 40 -279 81 -438 37 -148 57 -207 165 -477 95 -240 160
-375 236 -496 27 -44 74 -130 103 -192 79 -164 324 -503 510 -709 190 -209
582 -536 871 -728 22 -14 112 -57 199 -94 159 -68 160 -69 210 -57 128 30 338
128 490 230 122 82 177 126 340 271 65 58 148 128 185 156 124 97 428 421 562
599 106 141 264 404 364 605 51 102 174 389 221 515 18 50 45 122 60 160 133
351 213 830 192 1145 -17 258 -95 580 -177 735 -170 322 -253 437 -465 648
-98 98 -180 177 -181 175 -2 -2 -13 -52 -25 -113 -72 -365 -132 -502 -314
-710 -149 -169 -257 -259 -413 -341 -48 -26 -102 -57 -118 -70 -66 -50 -163
-77 -375 -104 -36 -5 -101 -16 -145 -26 -71 -15 -96 -16 -226 -5 -261 21 -393
65 -649 215 -193 113 -221 132 -360 243 -154 123 -214 187 -312 334 -95 141
-130 239 -154 425 -9 71 -20 137 -23 147 -5 14 -27 -3 -113 -90z"/>
</g>
</svg>
